<svg width="30" height="30" viewBox="0 0 30 30" fill="none" xmlns="http://www.w3.org/2000/svg">
<path d="M22.5011 25.1426L23.897 27.0196C24.5733 26.5167 25.2118 25.9523 25.7949 25.3423L24.1039 23.7261C23.6114 24.2413 23.0721 24.718 22.5011 25.1426Z" fill="white"/>
<path d="M18.7047 27.071L19.3952 29.3059C20.2007 29.057 20.9909 28.737 21.7438 28.3544L20.6842 26.269C20.0495 26.5914 19.3835 26.8612 18.7047 27.071Z" fill="white"/>
<path d="M25.4463 22.0608L27.3847 23.3702C27.8576 22.67 28.2734 21.9254 28.6205 21.1572L26.4887 20.1942C26.196 20.842 25.8453 21.47 25.4463 22.0608Z" fill="white"/>
<path d="M13.8596 13.8304H7.30992V16.1696H16.1988V4.47369H13.8596V13.8304Z" fill="white"/>
<path d="M27.6608 2.71927V7.05117C26.561 5.29564 25.1044 3.78246 23.3661 2.60314C20.8842 0.919275 17.9811 0.0292358 14.9708 0.0292358C10.9719 0.0292358 7.21248 1.58648 4.3848 4.41404C1.55725 7.24172 0 11.0012 0 15C0 18.9988 1.55725 22.7583 4.3848 25.586C7.21248 28.4135 10.9719 29.9708 14.9708 29.9708C15.6218 29.9708 16.2771 29.9285 16.9185 29.8451L16.617 27.5254C16.0752 27.5958 15.5214 27.6316 14.9708 27.6316C8.00572 27.6316 2.33924 21.9651 2.33924 15C2.33924 8.0349 8.00572 2.36842 14.9708 2.36842C19.4917 2.36842 23.5944 4.75295 25.8461 8.56723H21.8129V10.9064H30V2.71927H27.6608Z" fill="white"/>
<path d="M27.5579 16.0526C27.5474 16.1774 27.535 16.3015 27.5211 16.4253L27.5223 16.4254C27.4557 17.0173 27.3479 17.6056 27.1993 18.1788L29.4638 18.7655C29.675 17.9504 29.818 17.1098 29.8886 16.2674L29.8869 16.2673C29.8931 16.1958 29.8993 16.1244 29.9043 16.0526H27.5579Z" fill="white"/>
</svg>

