<svg width="30" height="30" viewBox="0 0 30 30" fill="none" xmlns="http://www.w3.org/2000/svg">
<path d="M26.6027 8.87822L28.2616 8.00041C27.9496 7.41082 27.599 6.84253 27.212 6.29924L25.6827 7.38923C26.0222 7.86451 26.3295 8.36192 26.6027 8.87822Z" fill="white"/>
<path d="M24.5739 6.03448L25.9437 4.75109C25.4873 4.26448 24.9996 3.80815 24.4838 3.38509L23.2933 4.83746C23.7458 5.20813 24.1736 5.60795 24.5739 6.03448Z" fill="white"/>
<path d="M29.0799 9.82923H29.0781L27.3168 10.4761C29.8255 17.2923 26.3336 24.8516 19.5174 27.3603C12.7013 29.869 5.14187 26.3771 2.63319 19.5609C0.124502 12.7447 3.61638 5.1854 10.4326 2.67666C14.2192 1.28302 18.4359 1.70473 21.8716 3.82063L22.8583 2.22461C15.8027 -2.11451 6.56538 0.0876481 2.22626 7.14329C-2.11286 14.1989 0.0892961 23.4362 7.14493 27.7753C14.2006 32.1144 23.4378 29.9123 27.7769 22.8566C30.1838 18.943 30.664 14.1421 29.0799 9.82923Z" fill="white"/>
<path d="M18.7296 15.0126C20.8036 15.0126 22.485 13.3312 22.485 11.2572C22.485 9.18321 20.8036 7.50188 18.7296 7.50188H12.1578V13.1349H8.40245V15.0126H12.1578V16.8902H8.40245V18.7679H12.1578V22.5232H14.0355V18.7679H17.7908V16.8902H14.0355V15.0126H18.7296ZM14.0355 9.37955H18.7296C19.7666 9.37955 20.6073 10.2202 20.6073 11.2572C20.6073 12.2942 19.7666 13.1349 18.7296 13.1349H14.0355V9.37955Z" fill="white"/>
</svg>

